<svg xmlns="http://www.w3.org/2000/svg" width="256" height="256" viewBox="0 0 100 100"><rect width="100" height="100" rx="20" fill="#4e5180"></rect><path fill="#fff" d="M77.91 21.06L77.91 21.06Q77.43 21.33 76.42 21.90L76.42 21.90Q75.54 22.38 74.02 23.28Q72.51 24.18 70.09 25.59L70.09 25.59Q70.84 24.62 70.77 24.20Q70.71 23.79 70.35 23.65L70.35 23.65Q69.91 23.48 69.17 23.61L69.17 23.61Q68.73 23.70 67.28 23.81Q65.83 23.92 63.65 24.01Q61.48 24.09 58.71 24.18Q55.94 24.27 52.86 24.31L52.86 24.31Q52.69 31.65 52.56 37.45Q52.42 43.25 52.31 47.74Q52.20 52.22 52.14 55.52Q52.07 58.81 52.03 61.14L52.03 61.14Q51.90 66.59 51.90 68.70L51.90 68.70Q51.85 70.32 51.46 71.91L51.46 71.91Q51.11 73.27 50.40 74.83Q49.70 76.39 48.38 77.66L48.38 77.66Q49.22 77.75 49.96 77.77Q50.71 77.80 51.46 77.80L51.46 77.80Q53.52 77.80 55.17 77.60Q56.82 77.40 58.01 77.18Q59.19 76.96 59.92 76.74Q60.64 76.52 60.82 76.43L60.82 76.43Q58.49 78.02 56.95 79.16Q55.41 80.30 54.18 81.03Q52.95 81.75 51.77 82.10Q50.58 82.45 49.00 82.45L49.00 82.45Q46.89 82.45 45.42 82.28Q43.94 82.10 42.45 82.10L42.45 82.10Q41.70 82.10 40.93 82.17Q40.16 82.23 39.20 82.45L39.20 82.45Q40.43 81.40 41.46 80.15Q42.49 78.89 43.20 77.09Q43.90 75.29 44.29 72.79Q44.69 70.28 44.69 66.72L44.69 66.72L44.69 24.58Q40.87 24.67 37.20 24.75Q33.53 24.84 30.58 24.91Q27.64 24.97 25.64 25.06Q23.64 25.15 23.11 25.19L23.11 25.19Q21.88 25.32 21.36 25.10Q20.83 24.89 20.87 24.42Q20.92 23.96 21.51 23.30Q22.10 22.64 23.11 21.90L23.11 21.90L29.13 17.55Q28.47 18.34 28.72 18.73Q28.96 19.13 29.49 19.35L29.49 19.35Q30.10 19.57 31.11 19.61L31.11 19.61Q31.81 19.61 33.97 19.57Q36.12 19.52 39.22 19.46Q42.32 19.39 46.10 19.33Q49.88 19.26 53.79 19.15Q57.70 19.04 61.48 18.95Q65.26 18.86 68.35 18.80Q71.45 18.73 73.61 18.67Q75.76 18.60 76.46 18.56L76.46 18.56Q77.83 18.51 78.44 18.78Q79.06 19.04 79.12 19.48Q79.19 19.92 78.81 20.36Q78.44 20.80 77.91 21.06ZM60.91 76.35L60.82 76.43L60.82 76.39Q60.86 76.35 60.91 76.35L60.91 76.35Z"></path></svg>