<?xml version="1.0" standalone="no"?>
<!DOCTYPE svg PUBLIC "-//W3C//DTD SVG 20010904//EN"
 "http://www.w3.org/TR/2001/REC-SVG-20010904/DTD/svg10.dtd">
<svg version="1.0" xmlns="http://www.w3.org/2000/svg"
 width="700.000000pt" height="700.000000pt" viewBox="0 0 700.000000 700.000000"
 preserveAspectRatio="xMidYMid meet">
<metadata>
Created by potrace 1.14, written by Peter Selinger 2001-2017
</metadata>
<g transform="translate(0.000000,700.000000) scale(0.100000,-0.100000)"
fill="#000000" stroke="none">
<path d="M1250 6993 c-141 -15 -348 -77 -480 -143 -386 -196 -644 -533 -742
-971 l-23 -104 0 -2275 0 -2275 23 -104 c128 -569 527 -968 1095 -1093 l102
-23 2275 0 2275 0 100 22 c137 31 213 56 331 113 395 187 668 536 766 983 l23
102 0 2275 0 2275 -23 102 c-99 447 -371 796 -766 983 -118 56 -164 73 -306
108 l-105 27 -2255 1 c-1240 0 -2271 -1 -2290 -3z m772 -1245 c-7 -7 -12 -25
-12 -40 0 -35 43 -64 110 -74 64 -10 1190 12 2887 57 454 12 481 10 518 -31
23 -25 13 -64 -24 -99 -15 -14 -73 -51 -127 -81 -54 -30 -177 -100 -273 -157
-95 -57 -175 -103 -177 -103 -3 0 2 13 11 30 22 42 19 77 -7 91 -16 9 -50 9
-137 0 -143 -14 -458 -28 -817 -37 l-272 -7 -6 -226 c-10 -343 -34 -1388 -51
-2216 -12 -564 -19 -760 -31 -823 -28 -152 -98 -316 -177 -414 l-46 -55 118
-6 c217 -12 487 18 716 79 11 3 -2 -10 -30 -29 -27 -19 -120 -85 -205 -146
-181 -130 -298 -193 -406 -217 -67 -14 -103 -16 -258 -9 -237 11 -480 12 -535
2 l-43 -8 58 58 c182 179 252 337 305 688 9 60 13 486 16 1694 l4 1613 -203
-6 c-112 -4 -399 -11 -638 -17 -239 -5 -505 -14 -590 -19 -171 -9 -201 -7
-226 21 -44 49 24 120 320 334 209 151 261 186 228 153z"/>
</g>
</svg>
